<svg xmlns="http://www.w3.org/2000/svg" width="74" height="74" viewBox="0 0 74 74"><path fill="#FFF" d="M72 68c0 2.21-1.79 4-4 4H6c-2.21 0-4-1.79-4-4V6c0-2.21 1.79-4 4-4h62c2.21 0 4 1.79 4 4v62z"/><path fill="#54534E" d="M68 0H6C2.69 0 0 2.69 0 6v62c0 3.31 2.69 6 6 6h62c3.31 0 6-2.69 6-6V6c0-3.31-2.69-6-6-6zM19.5 45.492c-1.38 0-2.5-1.12-2.5-2.5s1.12-2.5 2.5-2.5 2.5 1.12 2.5 2.5-1.12 2.5-2.5 2.5zm.5.95c1.2-.175 2.204-.95 2.687-2.02l10.86 3.103c-.02.154-.047.307-.047.467 0 1.758 1.31 3.204 3 3.45V70H20V46.44zm19.5 1.55c0 1.38-1.12 2.5-2.5 2.5s-2.5-1.12-2.5-2.5 1.12-2.5 2.5-2.5 2.5 1.12 2.5 2.5zm-2 3.45c1.69-.246 3-1.692 3-3.45 0-.45-.093-.88-.25-1.276l11.518-6.563c.543.686 1.33 1.158 2.232 1.29V70H37.5V51.44zm17-10.95c-1.38 0-2.5-1.12-2.5-2.5s1.12-2.5 2.5-2.5 2.5 1.12 2.5 2.5-1.12 2.5-2.5 2.5zm0-6c-1.93 0-3.5 1.57-3.5 3.5 0 .46.095.898.257 1.3l-11.51 6.56c-.64-.82-1.628-1.36-2.747-1.36-1.42 0-2.638.854-3.187 2.07l-10.86-3.103c.02-.155.047-.308.047-.468 0-1.93-1.57-3.5-3.5-3.5s-3.5 1.57-3.5 3.5c0 .194.026.38.058.566L4 50.43V18h66v10.61l-12.737 7.26c-.64-.833-1.635-1.378-2.763-1.378zM6 4h62c1.103 0 2 .897 2 2v8H4V6c0-1.103.897-2 2-2zM4 68V51.582l12.372-7.05c.5 1.012 1.47 1.74 2.628 1.91V70H6c-1.103 0-2-.896-2-2zm64 2H55V41.44c1.69-.244 3-1.69 3-3.448 0-.443-.092-.863-.242-1.254L70 29.762V68c0 1.104-.897 2-2 2z"/></svg>