<svg xmlns="http://www.w3.org/2000/svg" width="92" height="74" viewBox="0 0 92 74"><path fill="#FFF" d="M82 44.304c0 2.21-1.79 4-4 4H14c-2.21 0-4-1.79-4-4V6.237c0-2.21 1.79-4 4-4h64c2.21 0 4 1.79 4 4v38.067zm2.834 27.71c5.207 0 6.227-4.862 4.166-7.793-6.266-8.91-2.293-3.28-7-10.166H10C5.292 60.94 9.266 55.31 3 64.22c-2.06 2.932-1.042 7.793 4.167 7.793h77.667z"/><path fill="#54534E" d="M78 50.054H14c-3.31 0-6-2.69-6-6V5.987c0-3.31 2.69-6 6-6h64c3.31 0 6 2.69 6 6v38.067c0 3.31-2.69 6-6 6zM14 3.987c-1.103 0-2 .897-2 2v38.067c0 1.104.897 2 2 2h64c1.104 0 2-.896 2-2V5.987c0-1.103-.896-2-2-2H14zM90.637 63.07c-3.735-5.31-3.816-5.436-4.27-6.124-.318-.484-.813-1.238-2.717-4.02-.372-.546-.99-.872-1.65-.872H10c-.66 0-1.278.326-1.65.87-1.904 2.783-2.4 3.537-2.717 4.022-.453.688-.534.813-4.27 6.125C-.196 65.294-.44 68.21.75 70.5c1.16 2.234 3.5 3.516 6.416 3.516h77.667c2.918 0 5.257-1.28 6.417-3.516 1.19-2.29.948-5.206-.613-7.427zm-81.66-3.928c.276-.422.69-1.05 2.08-3.088h69.886c1.39 2.037 1.804 2.666 2.08 3.088.422.642.547.83 2.922 4.21.693 1.114.896 2.064.562 2.675-.354.645-1.343.986-2.858.986H8.35c-1.516 0-2.504-.342-2.858-.986-.335-.61-.132-1.56.562-2.674 2.374-3.38 2.5-3.57 2.92-4.21zM87.7 68.654c-.583 1.123-1.88 1.36-2.866 1.36H7.167c-.986 0-2.284-.237-2.868-1.36-.424-.814-.378-1.922.08-2.842.043.246.12.48.237.696.548.998 1.805 1.505 3.735 1.505H83.65c1.93 0 3.186-.507 3.733-1.505.12-.216.194-.45.238-.696.458.92.504 2.027.08 2.842zM38.17 35.268c.15-.23.084-.54-.147-.692l-14.61-9.496 14.612-9.616c.23-.15.294-.46.143-.692-.15-.23-.46-.295-.692-.143l-15.25 10.035c-.142.093-.226.25-.226.42 0 .167.086.325.228.417l15.25 9.913c.085.055.18.08.273.08.164 0 .324-.08.42-.227zm16.35.147l15.252-9.913c.142-.092.228-.25.228-.418 0-.17-.084-.326-.225-.42L54.523 14.63c-.23-.154-.54-.09-.69.142-.153.23-.09.54.142.692l14.61 9.616-14.608 9.496c-.23.15-.297.46-.146.692.097.147.257.228.42.228.093 0 .188-.027.27-.08zm-13.073-.196l10-19.95c.123-.247.023-.547-.223-.67-.248-.126-.55-.025-.672.222l-10 19.95c-.124.246-.024.546.223.67.072.036.148.053.224.053.183 0 .36-.1.447-.276zm10.367 29.787c.464 0 .86-.23 1.06-.612s.16-.866-.094-1.23c-.22-.312-.214-.316-.296-.42-.55-.705-.894-.737-1.37-.737H40.886c-.478 0-.82.032-1.372.736-.082.104-.076.108-.296.422-.256.363-.292.846-.093 1.23s.594.61 1.058.61h11.63z"/></svg>