<svg xmlns="http://www.w3.org/2000/svg" width="75" height="74" viewBox="0 0 75 74"><rect x="29.838" y="-3.084" transform="rotate(-135 37.84 37.01)" fill="#FFF" width="16" height="80.187"/><path fill="#54534E" d="M60.71-.005L.876 59.83l14.14 14.145 59.84-59.837L60.71-.005zM60.7 16.96c-.195-.195-.512-.195-.707 0s-.195.512 0 .707l2.837 2.837-5.656 5.656-2.837-2.835c-.194-.196-.512-.195-.705 0-.196.195-.196.51 0 .706l2.835 2.837-28.72 28.72-2.837-2.837c-.194-.195-.512-.195-.707 0s-.194.512 0 .707l2.837 2.837-5.657 5.657-2.837-2.837c-.194-.193-.512-.195-.707 0s-.195.514 0 .707l2.836 2.838-5.66 5.658-8.482-8.488L60.71 5.652l8.486 8.485-5.66 5.66L60.7 16.96z"/><path fill="#FFF" d="M58.514 69.67c3.124 3.124 8.19 3.124 11.314 0s3.124-8.19 0-11.314l-51.1-51.1L3.03 2.87l4.388 15.7 51.098 51.1z"/><path fill="#54534E" d="M71.242 56.94L19.772 5.47.146-.012 5.63 19.615l51.47 51.47c1.89 1.888 4.4 2.928 7.07 2.928s5.184-1.04 7.072-2.93c3.9-3.898 3.9-10.242 0-14.142zm-4.596 1.063l-8.485 8.485L9.587 17.914c1.6-1.028 3.192-2.316 4.682-3.805 1.498-1.5 2.78-3.086 3.804-4.682l48.574 48.575zM8.05 7.893c.403-.403.782-.812 1.15-1.223l8.013 2.24c-.987 1.53-2.232 3.072-3.65 4.492-1.434 1.432-2.96 2.67-4.493 3.655L6.83 9.04c.41-.367.818-.746 1.22-1.148zm60.365 60.363c-1.134 1.133-2.64 1.757-4.243 1.757s-3.11-.624-4.243-1.757l-1.062-1.06 8.485-8.486 1.06 1.06c2.34 2.34 2.34 6.147.002 8.486z"/></svg>