<svg xmlns="http://www.w3.org/2000/svg" width="64" height="74" viewBox="0 0 64 74"><path fill="#FFF" d="M62.064 60.242V68c0 2.21-1.79 4-4 4H5.98c-2.21 0-4-1.79-4-4V6c0-2.21 1.79-4 4-4h48.04c2.21 0 4 1.79 4 4v54.242h4.044z"/><path fill="#54534E" d="M62.02 58.242h-2.04V6c0-3.31-2.69-6-6-6h-48c-3.31 0-6 2.69-6 6v62c0 3.31 2.69 6 6 6h52.042c3.31 0 6-2.69 6-6v-7.758c0-1.104-.896-2-2-2zM3.98 6c0-1.103.896-2 2-2h48c1.1 0 2 .897 2 2v52.242h-46c-1.105 0-2 .896-2 2v7.494c0 1.104-.898 2-2 2s-2-.896-2-2V6zm56.04 62c0 1.104-.895 2-2 2H11.534c.286-.7.446-1.463.446-2.264v-5.494h48.04V68zm-8.54-18.403h-43c-.276 0-.5-.224-.5-.5s.224-.5.5-.5h43c.275 0 .5.224.5.5s-.225.5-.5.5zm0-9h-43c-.276 0-.5-.224-.5-.5s.224-.5.5-.5h43c.275 0 .5.224.5.5s-.225.5-.5.5zm0-9h-24.5c-.276 0-.5-.224-.5-.5s.224-.5.5-.5h24.5c.275 0 .5.224.5.5s-.225.5-.5.5zm0-9h-24.5c-.276 0-.5-.224-.5-.5s.224-.5.5-.5h24.5c.275 0 .5.224.5.5s-.225.5-.5.5zm0-9h-24.5c-.276 0-.5-.224-.5-.5s.224-.5.5-.5h24.5c.275 0 .5.224.5.5s-.225.5-.5.5zm-29.5 18H8.48c-.277 0-.5-.224-.5-.5v-18c0-.276.223-.5.5-.5h13.5c.275 0 .5.224.5.5v18c0 .276-.224.5-.5.5zm-13-1h12.5v-17H8.98v17z"/></svg>