<svg xmlns="http://www.w3.org/2000/svg" width="49" height="74" viewBox="0 0 49 74"><path fill="#FFF" d="M24.5 2.16c-12.18 0-22.052 9.873-22.052 22.05 0 5.968 2.215 11.175 6.045 15.165 5.03 5.24 5.902 8.235 5.902 14.478v9.84c0 1.566 2.417 5.304 5.525 5.304h9.16c2.787 0 5.525-3.872 5.525-5.304v-9.84c0-6.242.885-9.244 5.912-14.488 3.82-3.984 6.034-9.196 6.034-15.153.002-12.18-9.87-22.052-22.05-22.052z"/><path fill="#54534E" d="M48.552 24.05C48.552 10.79 37.762 0 24.5 0S.448 10.79.448 24.05C.448 30.38 2.73 36.1 7.05 40.6c3.377 3.518 4.665 5.766 5.118 8.97h-.558c-1.104 0-2 .896-2 2s.896 2 2 2h.783v10.122c0 2.5 3.18 7.304 7.526 7.304h.502C20.975 72.733 22.582 74 24.5 74s3.525-1.267 4.077-3.004h.503c4.043 0 7.525-4.9 7.525-7.304v-3.986l.002-6.136h.783c1.104 0 2-.896 2-2s-.896-2-2-2h-.558c.455-3.202 1.745-5.453 5.128-8.98 4.312-4.496 6.592-10.215 6.592-16.54zM16.395 63.693V60.4l16.21-3.614v2.92h.004v.852l-16.08 3.585c-.075-.177-.124-.334-.135-.45zm2.076-32.29l-.88.49c-.962.544-1.522.702-2.498.702-.903 0-1.752-.352-2.39-.99-.64-.638-.99-1.486-.99-2.39 0-.903.352-1.75.99-2.39.638-.64 1.487-.99 2.39-.99.9 0 1.75.352 2.39.99.564.564.99 1.75.99 2.762v1.816zm6.03-2.23c.25.148.512.298.782.454l4.246 2.363v17.58H19.47V31.99l4.255-2.368c.268-.154.526-.302.775-.45zm-2.382-3.028c-.644-.672-.998-1.524-.998-2.398 0-.902.352-1.75.99-2.39.638-.64 1.487-.99 2.39-.99.902 0 1.75.35 2.39.99.638.64.99 1.487.99 2.39 0 .902-.353 1.75-1 2.398-.745.778-1.512 1.33-2.38 1.863-.87-.536-1.636-1.087-2.382-1.863zm10.49 27.426v.02c0 .012 0 1.525-.002 2.17l-16.21 3.615V53.57h16.21zM29.08 66.996h-9.16c-1.125 0-2.208-1.006-2.87-1.945l15.56-3.47v2.026c-.152.873-2.087 3.39-3.53 3.39zm3.727-17.426H30.53V32.546l.39.217c1.11.63 1.837.83 2.99.83 1.17 0 2.27-.455 3.097-1.282.828-.828 1.283-1.927 1.283-3.095 0-1.17-.455-2.27-1.283-3.098-.826-.828-1.926-1.283-3.097-1.283-1.17 0-2.27.456-3.098 1.283-.755.755-1.283 2.182-1.283 3.47v1.258l-3.754-2.09-.308-.176c.75-.49 1.44-1.02 2.128-1.737.828-.828 1.284-1.928 1.284-3.098s-.456-2.27-1.284-3.096c-.826-.83-1.926-1.286-3.096-1.286-1.17 0-2.27.456-3.097 1.284-.828.828-1.283 1.927-1.283 3.097 0 1.134.453 2.23 1.276 3.09.69.72 1.383 1.253 2.137 1.744-.1.056-.2.114-.3.172l-3.763 2.093v-1.26c0-1.288-.527-2.714-1.282-3.47-.83-.826-1.928-1.282-3.097-1.282-1.17 0-2.27.456-3.097 1.283s-1.282 1.927-1.282 3.098c0 1.17.457 2.27 1.283 3.096.828.828 1.928 1.283 3.098 1.283 1.153 0 1.88-.202 2.987-.83l.393-.218V49.57h-2.275c-.48-4.133-2-7.304-6.26-11.74-3.59-3.74-5.487-8.504-5.487-13.78C4.448 12.996 13.444 4 24.5 4s20.05 8.995 20.05 20.05c0 5.272-1.893 10.034-5.478 13.77-4.262 4.45-5.785 7.62-6.265 11.75zm-2.28-18.17v-1.814c0-1.01.427-2.197.99-2.762 1.277-1.278 3.506-1.277 4.78 0 .64.64.99 1.488.99 2.39 0 .902-.35 1.75-.99 2.39-.637.64-1.485.99-2.39.99-.977 0-1.537-.157-2.5-.703l-.88-.49z"/></svg>