<svg xmlns="http://www.w3.org/2000/svg" width="62" height="74" viewBox="0 0 62 74"><path fill="#FFF" d="M40 1.987V26.38l18.503 34.31c.677 1.254 1.298 2.59 1.298 4.123 0 3.977-3.224 7.2-7.2 7.2H9.4c-3.977 0-7.2-3.224-7.2-7.2 0-1.53.617-2.865 1.293-4.12L22 26.38V1.988h18z"/><path fill="#54534E" d="M60.263 59.74L42 25.873V3.987h1c1.105 0 2-.896 2-2s-.895-2-2-2H19c-1.104 0-2 .896-2 2s.896 2 2 2h1v21.887L1.732 59.744C.936 61.22.2 62.854.2 64.812c0 5.074 4.127 9.2 9.2 9.2h43.2c5.073 0 9.2-4.126 9.2-9.2 0-1.953-.738-3.593-1.537-5.073zM38 3.986V26.38c0 .33.082.657.24.948l5.236 9.712H18.522l2.44-4.527h4.256c.276 0 .5-.224.5-.5s-.224-.5-.5-.5h-3.716l2.257-4.185c.157-.29.24-.618.24-.95V3.988h14zm14.6 66.026H9.4c-2.867 0-5.2-2.334-5.2-5.2 0-1.014.402-1.965 1.053-3.17l2.767-5.13h4.293c.276 0 .5-.225.5-.5 0-.277-.224-.5-.5-.5H8.56l5.932-11h4.227c.275 0 .5-.225.5-.5 0-.277-.225-.5-.5-.5h-3.69l2.953-5.474h26.033l12.726 23.597c.654 1.212 1.06 2.165 1.06 3.175-.002 2.867-2.335 5.2-5.203 5.2zm-11.55-15.89c-2.48 0-4.5 2.02-4.5 4.5s2.02 4.5 4.5 4.5c2.482 0 4.5-2.018 4.5-4.5s-2.017-4.5-4.5-4.5zm0 8c-1.93 0-3.5-1.57-3.5-3.5s1.57-3.5 3.5-3.5 3.5 1.57 3.5 3.5-1.57 3.5-3.5 3.5zm-8.044-10.068c-1.93 0-3.5-1.57-3.5-3.5s1.57-3.5 3.5-3.5 3.5 1.57 3.5 3.5-1.57 3.5-3.5 3.5zm0-6c-1.38 0-2.5 1.122-2.5 2.5s1.12 2.5 2.5 2.5c1.378 0 2.5-1.122 2.5-2.5s-1.122-2.5-2.5-2.5zm-8.958 19.042c-1.93 0-3.5-1.57-3.5-3.5s1.57-3.5 3.5-3.5 3.5 1.57 3.5 3.5-1.57 3.5-3.5 3.5zm0-6c-1.38 0-2.5 1.12-2.5 2.5s1.12 2.5 2.5 2.5c1.378 0 2.5-1.12 2.5-2.5s-1.122-2.5-2.5-2.5z"/></svg>